<svg width="23" height="23" viewBox="0 0 23 23" fill="none" xmlns="http://www.w3.org/2000/svg">
<path d="M7.90625 7.90625C8.09687 7.90625 8.27969 7.98198 8.41448 8.11677C8.54927 8.25156 8.625 8.43438 8.625 8.625V17.25C8.625 17.4406 8.54927 17.6234 8.41448 17.7582C8.27969 17.893 8.09687 17.9688 7.90625 17.9688C7.71563 17.9688 7.53281 17.893 7.39802 17.7582C7.26323 17.6234 7.1875 17.4406 7.1875 17.25V8.625C7.1875 8.43438 7.26323 8.25156 7.39802 8.11677C7.53281 7.98198 7.71563 7.90625 7.90625 7.90625ZM11.5 7.90625C11.6906 7.90625 11.8734 7.98198 12.0082 8.11677C12.143 8.25156 12.2188 8.43438 12.2188 8.625V17.25C12.2188 17.4406 12.143 17.6234 12.0082 17.7582C11.8734 17.893 11.6906 17.9688 11.5 17.9688C11.3094 17.9688 11.1266 17.893 10.9918 17.7582C10.857 17.6234 10.7812 17.4406 10.7812 17.25V8.625C10.7812 8.43438 10.857 8.25156 10.9918 8.11677C11.1266 7.98198 11.3094 7.90625 11.5 7.90625ZM15.8125 8.625C15.8125 8.43438 15.7368 8.25156 15.602 8.11677C15.4672 7.98198 15.2844 7.90625 15.0938 7.90625C14.9031 7.90625 14.7203 7.98198 14.5855 8.11677C14.4507 8.25156 14.375 8.43438 14.375 8.625V17.25C14.375 17.4406 14.4507 17.6234 14.5855 17.7582C14.7203 17.893 14.9031 17.9688 15.0938 17.9688C15.2844 17.9688 15.4672 17.893 15.602 17.7582C15.7368 17.6234 15.8125 17.4406 15.8125 17.25V8.625Z" fill="#222222"/>
<path fill-rule="evenodd" clip-rule="evenodd" d="M20.8438 4.3125C20.8438 4.69375 20.6923 5.05938 20.4227 5.32897C20.1531 5.59855 19.7875 5.75 19.4062 5.75H18.6875V18.6875C18.6875 19.45 18.3846 20.1813 17.8454 20.7204C17.3063 21.2596 16.575 21.5625 15.8125 21.5625H7.1875C6.425 21.5625 5.69373 21.2596 5.15457 20.7204C4.6154 20.1813 4.3125 19.45 4.3125 18.6875V5.75H3.59375C3.2125 5.75 2.84687 5.59855 2.57728 5.32897C2.3077 5.05938 2.15625 4.69375 2.15625 4.3125V2.875C2.15625 2.49375 2.3077 2.12812 2.57728 1.85853C2.84687 1.58895 3.2125 1.4375 3.59375 1.4375H8.625C8.625 1.05625 8.77645 0.690618 9.04603 0.421034C9.31562 0.15145 9.68125 0 10.0625 0L12.9375 0C13.3187 0 13.6844 0.15145 13.954 0.421034C14.2235 0.690618 14.375 1.05625 14.375 1.4375H19.4062C19.7875 1.4375 20.1531 1.58895 20.4227 1.85853C20.6923 2.12812 20.8438 2.49375 20.8438 2.875V4.3125ZM5.91963 5.75L5.75 5.83481V18.6875C5.75 19.0687 5.90145 19.4344 6.17103 19.704C6.44062 19.9735 6.80625 20.125 7.1875 20.125H15.8125C16.1937 20.125 16.5594 19.9735 16.829 19.704C17.0985 19.4344 17.25 19.0687 17.25 18.6875V5.83481L17.0804 5.75H5.91963ZM3.59375 4.3125V2.875H19.4062V4.3125H3.59375Z" fill="#222222"/>
</svg>
