<svg width="119" height="119" viewBox="0 0 119 119" fill="none" xmlns="http://www.w3.org/2000/svg">
<path d="M81.8125 44.625C81.8125 50.5426 79.4617 56.2179 75.2773 60.4023C71.0929 64.5867 65.4176 66.9375 59.5 66.9375C53.5824 66.9375 47.9071 64.5867 43.7227 60.4023C39.5383 56.2179 37.1875 50.5426 37.1875 44.625C37.1875 38.7074 39.5383 33.0321 43.7227 28.8477C47.9071 24.6633 53.5824 22.3125 59.5 22.3125C65.4176 22.3125 71.0929 24.6633 75.2773 28.8477C79.4617 33.0321 81.8125 38.7074 81.8125 44.625Z" fill="#EEEEEE"/>
<path fill-rule="evenodd" clip-rule="evenodd" d="M0 59.5C0 43.7196 6.26873 28.5856 17.4271 17.4271C28.5856 6.26873 43.7196 0 59.5 0C75.2804 0 90.4144 6.26873 101.573 17.4271C112.731 28.5856 119 43.7196 119 59.5C119 75.2804 112.731 90.4144 101.573 101.573C90.4144 112.731 75.2804 119 59.5 119C43.7196 119 28.5856 112.731 17.4271 101.573C6.26873 90.4144 0 75.2804 0 59.5ZM59.5 7.4375C49.6957 7.43802 40.0909 10.2069 31.7909 15.4256C23.4909 20.6442 16.8332 28.1004 12.584 36.9361C8.3348 45.7717 6.66687 55.6276 7.77218 65.3694C8.87748 75.1111 12.7111 84.3428 18.8318 92.0019C24.1124 83.4934 35.7372 74.375 59.5 74.375C83.2628 74.375 94.8802 83.4859 100.168 92.0019C106.289 84.3428 110.123 75.1111 111.228 65.3694C112.333 55.6276 110.665 45.7717 106.416 36.9361C102.167 28.1004 95.5091 20.6442 87.2091 15.4256C78.9091 10.2069 69.3043 7.43802 59.5 7.4375Z" fill="#EEEEEE"/>
</svg>
