<svg width="189" height="33" viewBox="0 0 189 33" fill="none" xmlns="http://www.w3.org/2000/svg">
<path d="M49.04 23V22.36H47.76V16.92H50.368V21.672L51.696 23H55.328V22.36H54.048V17.928L52.72 16.6L54.048 15.272V11.688L52.56 10.2H42.8V10.84H44.08V22.36H42.8V23H49.04ZM47.76 10.84H50.368V16.28H47.76V10.84ZM57.6161 23H63.8401L65.3281 21.512L64.8321 21.016L63.4881 22.36H59.8081V19H63.7601L65.2481 17.512V14.888L63.7601 13.4H57.6161L56.1281 14.888V21.512L57.6161 23ZM59.8081 14.04H61.5681V18.36H59.8081V14.04ZM67.5706 23.16V21.912L68.6586 23H73.6986L75.0266 21.672V19.736L69.6506 14.04H72.7066L74.1466 15.48V16.68H74.8666V13.24H74.1466V14.488L73.0586 13.4H68.3386L67.0106 14.728V16.664L72.3866 22.36H69.0106L67.5706 20.92V19.72H66.8506V23.16H67.5706ZM88.5406 22.36V23H85.0686L83.9486 21.864L82.8126 23H79.2286L77.7406 21.512V14.04H76.4606V13.4H79.8526L81.3406 14.888V22.36H82.4606L83.5806 21.24V13.4H85.7726L87.2606 14.888V22.36H88.5406ZM107.339 22.36V23H103.787L102.459 21.672V14.04H101.339L100.219 15.16V22.36H101.179V23H96.5394V14.04H95.4194L94.2994 15.16V22.36H95.2594V23H89.3394V22.36H90.6194V14.04H89.3394V13.4H92.8114L93.9474 14.52L95.0674 13.4H98.7314L99.8674 14.52L100.987 13.4H104.571L106.059 14.888V22.36H107.339ZM110.101 23H116.325L117.812 21.512L117.317 21.016L115.973 22.36H112.293V19H116.245L117.733 17.512V14.888L116.245 13.4H110.101L108.613 14.888V21.512L110.101 23ZM112.293 14.04H114.053V18.36H112.293V14.04Z" fill="black"/>
<path d="M128.135 23L129.623 21.512V17.768L128.295 16.44L129.623 15.112V11.688L128.135 10.2H118.695V10.84H119.975V22.36H118.695V23H128.135ZM123.655 10.84H125.943V16.12H123.655V10.84ZM123.655 16.76H125.943V22.36H123.655V16.76ZM142.822 22.36V23H139.35L138.23 21.864L137.094 23H133.51L132.022 21.512V14.04H130.742V13.4H134.134L135.622 14.888V22.36H136.742L137.862 21.24V13.4H140.054L141.542 14.888V22.36H142.822ZM146.373 12.12L143.941 9.672L146.389 7.24L148.821 9.688L146.373 12.12ZM149.701 22.36V23H146.229L144.741 21.512V14.04H143.461V13.4H146.933L148.421 14.888V22.36H149.701ZM155.936 22.36V23H152.624L151.136 21.512V9.56H150.016V8.92H153.328L154.816 10.408V22.36H155.936ZM168.266 22.36V23H164.794L163.674 21.864L162.538 23H158.538L157.05 21.512V14.888L158.538 13.4H162.442L163.306 14.264V9.56H162.026V8.92H165.498L166.986 10.408V22.36H168.266ZM163.306 21.24V15.256L162.09 14.04H160.81V22.36H162.186L163.306 21.24ZM170.71 23H176.934L178.422 21.512L177.926 21.016L176.582 22.36H172.902V19H176.854L178.342 17.512V14.888L176.854 13.4H170.71L169.222 14.888V21.512L170.71 23ZM172.902 14.04H174.662V18.36H172.902V14.04ZM188.264 14.568L187.768 15.064L186.744 14.04H185.384L184.264 15.16V22.36H185.544V23H182.072L180.584 21.512V14.04H179.304V13.4H182.776L183.912 14.52L185.032 13.4H187.096L188.264 14.568Z" fill="#676767"/>
<g clip-path="url(#clip0_3_2)">
<path d="M15.9885 0.136555C16.1443 0.0475683 16.3206 0.000762939 16.5 0.000762939C16.6794 0.000762939 16.8557 0.0475683 17.0115 0.136555L24.7459 4.55649C24.9037 4.64665 25.0349 4.77693 25.1262 4.93412C25.2175 5.09132 25.2656 5.26984 25.2656 5.45162V13.6913L32.4803 17.8163C32.6375 17.9061 32.7683 18.0357 32.8595 18.1921C32.9508 18.3486 32.9992 18.5262 33 18.7073V27.5472C32.9999 27.7289 32.9518 27.9075 32.8606 28.0647C32.7693 28.2219 32.6381 28.3521 32.4803 28.4423L24.7459 32.8622C24.5901 32.9512 24.4138 32.998 24.2344 32.998C24.055 32.998 23.8787 32.9512 23.7229 32.8622L16.5 28.7372L9.27713 32.8643C9.12134 32.9533 8.94503 33.0001 8.76562 33.0001C8.58622 33.0001 8.40991 32.9533 8.25412 32.8643L0.51975 28.4444C0.361913 28.3542 0.230711 28.2239 0.139436 28.0667C0.048162 27.9095 5.86308e-05 27.731 0 27.5492L0 18.7094C5.86308e-05 18.5276 0.048162 18.3491 0.139436 18.1919C0.230711 18.0347 0.361913 17.9044 0.51975 17.8142L7.73438 13.6913V5.45162C7.73443 5.26984 7.78254 5.09132 7.87381 4.93412C7.96509 4.77693 8.09629 4.64665 8.25412 4.55649L15.9885 0.136555ZM8.76562 15.4774L3.11025 18.7094L8.76562 21.9413L14.421 18.7094L8.76562 15.4774ZM15.4688 20.4872L9.79688 23.7274V30.1913L15.4688 26.9511V20.4872ZM17.5312 26.9511L23.2031 30.1913V23.7274L17.5312 20.4872V26.9511ZM18.579 18.7094L24.2344 21.9413L29.8897 18.7094L24.2344 15.4774L18.579 18.7094ZM23.2031 13.6913V7.22743L17.5312 10.4697V16.9336L23.2031 13.6913V13.6913ZM15.4688 16.9336V10.4697L9.79688 7.22743V13.6913L15.4688 16.9336ZM10.8446 5.45162L16.5 8.68355L22.1554 5.45162L16.5 2.21968L10.8446 5.45162ZM30.9375 20.4872L25.2656 23.7274V30.1913L30.9375 26.9511V20.4872ZM7.73438 30.1913V23.7274L2.0625 20.4872V26.9511L7.73438 30.1913Z" fill="#309CBE"/>
</g>
<defs>
<clipPath id="clip0_3_2">
<rect width="33" height="33" fill="white"/>
</clipPath>
</defs>
</svg>
