<svg width="249" height="44" viewBox="0 0 249 44" fill="none" xmlns="http://www.w3.org/2000/svg">
<path d="M71.872 30L68.104 24.6C70.288 23.664 71.56 21.816 71.56 19.296C71.56 15.528 68.752 13.2 64.264 13.2H56.992V30H60.88V25.32H64.264H64.456L67.696 30H71.872ZM67.624 19.296C67.624 21.12 66.424 22.224 64.048 22.224H60.88V16.368H64.048C66.424 16.368 67.624 17.448 67.624 19.296ZM87.0244 23.592C87.0244 19.44 84.0964 16.896 80.3044 16.896C76.3684 16.896 73.4164 19.68 73.4164 23.544C73.4164 27.384 76.3204 30.192 80.7844 30.192C83.1124 30.192 84.9124 29.472 86.1124 28.104L84.1204 25.944C83.2324 26.784 82.2484 27.192 80.8804 27.192C78.9124 27.192 77.5444 26.208 77.1844 24.6H86.9524C86.9764 24.288 87.0244 23.88 87.0244 23.592ZM80.3284 19.728C82.0084 19.728 83.2324 20.784 83.4964 22.416H77.1364C77.4004 20.76 78.6244 19.728 80.3284 19.728ZM93.8611 30.192C97.7251 30.192 99.9571 28.488 99.9571 26.088C99.9571 21 92.1571 23.136 92.1571 20.928C92.1571 20.256 92.8771 19.728 94.5571 19.728C95.7331 19.728 97.0051 19.968 98.2771 20.688L99.5251 18.024C98.3011 17.304 96.3331 16.896 94.5571 16.896C90.7891 16.896 88.5811 18.624 88.5811 21.072C88.5811 26.232 96.3811 24.072 96.3811 26.184C96.3811 26.904 95.7331 27.36 94.0051 27.36C92.4211 27.36 90.6691 26.856 89.5171 26.112L88.2691 28.8C89.4691 29.592 91.6771 30.192 93.8611 30.192ZM111.531 17.088V23.472C111.531 25.848 110.283 26.952 108.555 26.952C106.899 26.952 105.939 25.992 105.939 23.832V17.088H102.195V24.384C102.195 28.368 104.475 30.192 107.715 30.192C109.299 30.192 110.739 29.592 111.723 28.464V30H115.275V17.088H111.531ZM135.28 16.896C133.336 16.896 131.656 17.688 130.624 19.008C129.712 17.592 128.176 16.896 126.376 16.896C124.72 16.896 123.28 17.472 122.32 18.576V17.088H118.744V30H122.488V23.52C122.488 21.216 123.664 20.136 125.32 20.136C126.88 20.136 127.768 21.096 127.768 23.184V30H131.512V23.52C131.512 21.216 132.688 20.136 134.368 20.136C135.88 20.136 136.816 21.096 136.816 23.184V30H140.56V22.608C140.56 18.672 138.352 16.896 135.28 16.896ZM156.704 23.592C156.704 19.44 153.776 16.896 149.984 16.896C146.048 16.896 143.096 19.68 143.096 23.544C143.096 27.384 146 30.192 150.464 30.192C152.792 30.192 154.592 29.472 155.792 28.104L153.8 25.944C152.912 26.784 151.928 27.192 150.56 27.192C148.592 27.192 147.224 26.208 146.864 24.6H156.632C156.656 24.288 156.704 23.88 156.704 23.592ZM150.008 19.728C151.688 19.728 152.912 20.784 153.176 22.416H146.816C147.08 20.76 148.304 19.728 150.008 19.728ZM171.797 21.264C173.165 20.544 174.029 19.248 174.029 17.568C174.029 14.952 171.869 13.2 167.669 13.2H159.461V30H168.149C172.565 30 174.869 28.32 174.869 25.416C174.869 23.304 173.669 21.864 171.797 21.264ZM167.189 16.128C169.085 16.128 170.117 16.776 170.117 18.096C170.117 19.416 169.085 20.088 167.189 20.088H163.325V16.128H167.189ZM167.861 27.072H163.325V22.92H167.861C169.877 22.92 170.957 23.592 170.957 25.008C170.957 26.448 169.877 27.072 167.861 27.072ZM186.812 17.088V23.472C186.812 25.848 185.564 26.952 183.836 26.952C182.18 26.952 181.22 25.992 181.22 23.832V17.088H177.476V24.384C177.476 28.368 179.756 30.192 182.996 30.192C184.58 30.192 186.02 29.592 187.004 28.464V30H190.556V17.088H186.812ZM195.897 15.288C197.289 15.288 198.225 14.376 198.225 13.128C198.225 11.976 197.289 11.112 195.897 11.112C194.505 11.112 193.569 12.024 193.569 13.2C193.569 14.376 194.505 15.288 195.897 15.288ZM194.025 30H197.769V17.088H194.025V30ZM201.244 30H204.988V12.192H201.244V30ZM217.87 12.192V18.456C216.934 17.4 215.59 16.896 214.006 16.896C210.358 16.896 207.55 19.488 207.55 23.544C207.55 27.6 210.358 30.192 214.006 30.192C215.734 30.192 217.102 29.64 218.038 28.512V30H221.614V12.192H217.87ZM214.654 27.12C212.782 27.12 211.342 25.776 211.342 23.544C211.342 21.312 212.782 19.968 214.654 19.968C216.502 19.968 217.942 21.312 217.942 23.544C217.942 25.776 216.502 27.12 214.654 27.12ZM237.728 23.592C237.728 19.44 234.8 16.896 231.008 16.896C227.072 16.896 224.12 19.68 224.12 23.544C224.12 27.384 227.024 30.192 231.488 30.192C233.816 30.192 235.616 29.472 236.816 28.104L234.824 25.944C233.936 26.784 232.952 27.192 231.584 27.192C229.616 27.192 228.248 26.208 227.888 24.6H237.656C237.68 24.288 237.728 23.88 237.728 23.592ZM231.032 19.728C232.712 19.728 233.936 20.784 234.2 22.416H227.84C228.104 20.76 229.328 19.728 231.032 19.728ZM243.796 18.792V17.088H240.22V30H243.964V23.904C243.964 21.432 245.332 20.304 247.396 20.304C247.684 20.304 247.924 20.328 248.236 20.352V16.896C246.244 16.896 244.708 17.544 243.796 18.792Z" fill="#1B1263"/>
<g clip-path="url(#clip0_428_307)">
<path d="M21.318 0.182064C21.5257 0.0634142 21.7608 0.00100708 22 0.00100708C22.2392 0.00100708 22.4743 0.0634142 22.682 0.182064L32.9945 6.07531C33.2049 6.19553 33.3799 6.36923 33.5016 6.57882C33.6233 6.78841 33.6874 7.02645 33.6875 7.26881V18.2551L43.307 23.7551C43.5166 23.8748 43.6911 24.0476 43.8127 24.2562C43.9344 24.4647 43.999 24.7016 44 24.9431V36.7296C43.9999 36.9719 43.9358 37.21 43.8141 37.4196C43.6924 37.6291 43.5174 37.8028 43.307 37.9231L32.9945 43.8163C32.7868 43.935 32.5517 43.9974 32.3125 43.9974C32.0733 43.9974 31.8382 43.935 31.6305 43.8163L22 38.3163L12.3695 43.8191C12.1618 43.9377 11.9267 44.0001 11.6875 44.0001C11.4483 44.0001 11.2132 43.9377 11.0055 43.8191L0.693 37.9258C0.482551 37.8056 0.307614 37.6319 0.185915 37.4223C0.064216 37.2127 7.81744e-05 36.9747 0 36.7323L0 24.9458C7.81744e-05 24.7034 0.064216 24.4654 0.185915 24.2558C0.307614 24.0462 0.482551 23.8725 0.693 23.7523L10.3125 18.2551V7.26881C10.3126 7.02645 10.3767 6.78841 10.4984 6.57882C10.6201 6.36923 10.7951 6.19553 11.0055 6.07531L21.318 0.182064ZM11.6875 20.6366L4.147 24.9458L11.6875 29.2551L19.228 24.9458L11.6875 20.6366ZM20.625 27.3163L13.0625 31.6366V40.2551L20.625 35.9348V27.3163ZM23.375 35.9348L30.9375 40.2551V31.6366L23.375 27.3163V35.9348ZM24.772 24.9458L32.3125 29.2551L39.853 24.9458L32.3125 20.6366L24.772 24.9458ZM30.9375 18.2551V9.63656L23.375 13.9596V22.5781L30.9375 18.2551ZM20.625 22.5781V13.9596L13.0625 9.63656V18.2551L20.625 22.5781ZM14.4595 7.26881L22 11.5781L29.5405 7.26881L22 2.95956L14.4595 7.26881ZM41.25 27.3163L33.6875 31.6366V40.2551L41.25 35.9348V27.3163ZM10.3125 40.2551V31.6366L2.75 27.3163V35.9348L10.3125 40.2551Z" fill="url(#paint0_linear_428_307)"/>
</g>
<defs>
<linearGradient id="paint0_linear_428_307" x1="-2" y1="16" x2="42.6667" y2="16.6667" gradientUnits="userSpaceOnUse">
<stop stop-color="#5338D7"/>
<stop offset="1" stop-color="#4098E4"/>
</linearGradient>
<clipPath id="clip0_428_307">
<rect width="44" height="44" fill="white"/>
</clipPath>
</defs>
</svg>
