<svg width="217" height="44" viewBox="0 0 217 44" fill="none" xmlns="http://www.w3.org/2000/svg">
<path d="M56.66 29V15H62.72C63.9733 15 65.0533 15.2067 65.96 15.62C66.8667 16.02 67.5667 16.6 68.06 17.36C68.5533 18.12 68.8 19.0267 68.8 20.08C68.8 21.12 68.5533 22.02 68.06 22.78C67.5667 23.5267 66.8667 24.1 65.96 24.5C65.0533 24.9 63.9733 25.1 62.72 25.1H58.46L59.9 23.68V29H56.66ZM65.56 29L62.06 23.92H65.52L69.06 29H65.56ZM59.9 24.04L58.46 22.52H62.54C63.54 22.52 64.2867 22.3067 64.78 21.88C65.2733 21.44 65.52 20.84 65.52 20.08C65.52 19.3067 65.2733 18.7067 64.78 18.28C64.2867 17.8533 63.54 17.64 62.54 17.64H58.46L59.9 16.1V24.04ZM76.487 29.16C75.2604 29.16 74.1804 28.92 73.247 28.44C72.327 27.96 71.6137 27.3067 71.107 26.48C70.6004 25.64 70.347 24.6867 70.347 23.62C70.347 22.54 70.5937 21.5867 71.087 20.76C71.5937 19.92 72.2804 19.2667 73.147 18.8C74.0137 18.32 74.9937 18.08 76.087 18.08C77.1404 18.08 78.087 18.3067 78.927 18.76C79.7804 19.2 80.4537 19.84 80.947 20.68C81.4404 21.5067 81.687 22.5 81.687 23.66C81.687 23.78 81.6804 23.92 81.667 24.08C81.6537 24.2267 81.6404 24.3667 81.627 24.5H72.887V22.68H79.987L78.787 23.22C78.787 22.66 78.6737 22.1733 78.447 21.76C78.2204 21.3467 77.907 21.0267 77.507 20.8C77.107 20.56 76.6404 20.44 76.107 20.44C75.5737 20.44 75.1004 20.56 74.687 20.8C74.287 21.0267 73.9737 21.3533 73.747 21.78C73.5204 22.1933 73.407 22.6867 73.407 23.26V23.74C73.407 24.3267 73.5337 24.8467 73.787 25.3C74.0537 25.74 74.4204 26.08 74.887 26.32C75.367 26.5467 75.927 26.66 76.567 26.66C77.1404 26.66 77.6404 26.5733 78.067 26.4C78.507 26.2267 78.907 25.9667 79.267 25.62L80.927 27.42C80.4337 27.98 79.8137 28.4133 79.067 28.72C78.3204 29.0133 77.4604 29.16 76.487 29.16ZM87.3842 29.16C86.4642 29.16 85.5776 29.0533 84.7242 28.84C83.8842 28.6133 83.2176 28.3333 82.7242 28L83.7642 25.76C84.2576 26.0667 84.8376 26.32 85.5042 26.52C86.1842 26.7067 86.8509 26.8 87.5042 26.8C88.2242 26.8 88.7309 26.7133 89.0242 26.54C89.3309 26.3667 89.4842 26.1267 89.4842 25.82C89.4842 25.5667 89.3642 25.38 89.1242 25.26C88.8976 25.1267 88.5909 25.0267 88.2042 24.96C87.8176 24.8933 87.3909 24.8267 86.9242 24.76C86.4709 24.6933 86.0109 24.6067 85.5442 24.5C85.0776 24.38 84.6509 24.2067 84.2642 23.98C83.8776 23.7533 83.5642 23.4467 83.3242 23.06C83.0976 22.6733 82.9842 22.1733 82.9842 21.56C82.9842 20.88 83.1776 20.28 83.5642 19.76C83.9642 19.24 84.5376 18.8333 85.2842 18.54C86.0309 18.2333 86.9242 18.08 87.9642 18.08C88.6976 18.08 89.4442 18.16 90.2042 18.32C90.9642 18.48 91.5976 18.7133 92.1042 19.02L91.0642 21.24C90.5442 20.9333 90.0176 20.7267 89.4842 20.62C88.9642 20.5 88.4576 20.44 87.9642 20.44C87.2709 20.44 86.7642 20.5333 86.4442 20.72C86.1242 20.9067 85.9642 21.1467 85.9642 21.44C85.9642 21.7067 86.0776 21.9067 86.3042 22.04C86.5442 22.1733 86.8576 22.28 87.2442 22.36C87.6309 22.44 88.0509 22.5133 88.5042 22.58C88.9709 22.6333 89.4376 22.72 89.9042 22.84C90.3709 22.96 90.7909 23.1333 91.1642 23.36C91.5509 23.5733 91.8642 23.8733 92.1042 24.26C92.3442 24.6333 92.4642 25.1267 92.4642 25.74C92.4642 26.4067 92.2642 27 91.8642 27.52C91.4642 28.0267 90.8842 28.4267 90.1242 28.72C89.3776 29.0133 88.4642 29.16 87.3842 29.16ZM98.9292 29.16C98.0359 29.16 97.2359 28.9867 96.5292 28.64C95.8359 28.2933 95.2959 27.7667 94.9092 27.06C94.5226 26.34 94.3292 25.4267 94.3292 24.32V18.24H97.4492V23.86C97.4492 24.7533 97.6359 25.4133 98.0092 25.84C98.3959 26.2533 98.9359 26.46 99.6292 26.46C100.109 26.46 100.536 26.36 100.909 26.16C101.283 25.9467 101.576 25.6267 101.789 25.2C102.003 24.76 102.109 24.2133 102.109 23.56V18.24H105.229V29H102.269V26.04L102.809 26.9C102.449 27.6467 101.916 28.2133 101.209 28.6C100.516 28.9733 99.7559 29.16 98.9292 29.16ZM121.9 18.08C122.753 18.08 123.506 18.2533 124.16 18.6C124.826 18.9333 125.346 19.4533 125.72 20.16C126.106 20.8533 126.3 21.7467 126.3 22.84V29H123.18V23.32C123.18 22.4533 123 21.8133 122.64 21.4C122.28 20.9867 121.773 20.78 121.12 20.78C120.666 20.78 120.26 20.8867 119.9 21.1C119.54 21.3 119.26 21.6067 119.06 22.02C118.86 22.4333 118.76 22.96 118.76 23.6V29H115.64V23.32C115.64 22.4533 115.46 21.8133 115.1 21.4C114.753 20.9867 114.253 20.78 113.6 20.78C113.146 20.78 112.74 20.8867 112.38 21.1C112.02 21.3 111.74 21.6067 111.54 22.02C111.34 22.4333 111.24 22.96 111.24 23.6V29H108.12V18.24H111.1V21.18L110.54 20.32C110.913 19.5867 111.44 19.0333 112.12 18.66C112.813 18.2733 113.6 18.08 114.48 18.08C115.466 18.08 116.326 18.3333 117.06 18.84C117.806 19.3333 118.3 20.0933 118.54 21.12L117.44 20.82C117.8 19.98 118.373 19.3133 119.16 18.82C119.96 18.3267 120.873 18.08 121.9 18.08ZM134.514 29.16C133.288 29.16 132.208 28.92 131.274 28.44C130.354 27.96 129.641 27.3067 129.134 26.48C128.628 25.64 128.374 24.6867 128.374 23.62C128.374 22.54 128.621 21.5867 129.114 20.76C129.621 19.92 130.308 19.2667 131.174 18.8C132.041 18.32 133.021 18.08 134.114 18.08C135.168 18.08 136.114 18.3067 136.954 18.76C137.808 19.2 138.481 19.84 138.974 20.68C139.468 21.5067 139.714 22.5 139.714 23.66C139.714 23.78 139.708 23.92 139.694 24.08C139.681 24.2267 139.668 24.3667 139.654 24.5H130.914V22.68H138.014L136.814 23.22C136.814 22.66 136.701 22.1733 136.474 21.76C136.248 21.3467 135.934 21.0267 135.534 20.8C135.134 20.56 134.668 20.44 134.134 20.44C133.601 20.44 133.128 20.56 132.714 20.8C132.314 21.0267 132.001 21.3533 131.774 21.78C131.548 22.1933 131.434 22.6867 131.434 23.26V23.74C131.434 24.3267 131.561 24.8467 131.814 25.3C132.081 25.74 132.448 26.08 132.914 26.32C133.394 26.5467 133.954 26.66 134.594 26.66C135.168 26.66 135.668 26.5733 136.094 26.4C136.534 26.2267 136.934 25.9667 137.294 25.62L138.954 27.42C138.461 27.98 137.841 28.4133 137.094 28.72C136.348 29.0133 135.488 29.16 134.514 29.16Z" fill="white"/>
<path d="M142.012 29V15H148.852C150.612 15 151.932 15.3333 152.812 16C153.705 16.6667 154.152 17.5467 154.152 18.64C154.152 19.3733 153.972 20.0133 153.612 20.56C153.252 21.0933 152.758 21.5067 152.132 21.8C151.505 22.0933 150.785 22.24 149.972 22.24L150.352 21.42C151.232 21.42 152.012 21.5667 152.692 21.86C153.372 22.14 153.898 22.56 154.272 23.12C154.658 23.68 154.852 24.3667 154.852 25.18C154.852 26.38 154.378 27.32 153.432 28C152.485 28.6667 151.092 29 149.252 29H142.012ZM145.232 26.56H149.012C149.852 26.56 150.485 26.4267 150.912 26.16C151.352 25.88 151.572 25.44 151.572 24.84C151.572 24.2533 151.352 23.82 150.912 23.54C150.485 23.2467 149.852 23.1 149.012 23.1H144.992V20.74H148.452C149.238 20.74 149.838 20.6067 150.252 20.34C150.678 20.06 150.892 19.64 150.892 19.08C150.892 18.5333 150.678 18.1267 150.252 17.86C149.838 17.58 149.238 17.44 148.452 17.44H145.232V26.56ZM161.625 29.16C160.731 29.16 159.931 28.9867 159.225 28.64C158.531 28.2933 157.991 27.7667 157.605 27.06C157.218 26.34 157.025 25.4267 157.025 24.32V18.24H160.145V23.86C160.145 24.7533 160.331 25.4133 160.705 25.84C161.091 26.2533 161.631 26.46 162.325 26.46C162.805 26.46 163.231 26.36 163.605 26.16C163.978 25.9467 164.271 25.6267 164.485 25.2C164.698 24.76 164.805 24.2133 164.805 23.56V18.24H167.925V29H164.965V26.04L165.505 26.9C165.145 27.6467 164.611 28.2133 163.905 28.6C163.211 28.9733 162.451 29.16 161.625 29.16ZM170.815 29V18.24H173.935V29H170.815ZM172.375 16.74C171.802 16.74 171.335 16.5733 170.975 16.24C170.615 15.9067 170.435 15.4933 170.435 15C170.435 14.5067 170.615 14.0933 170.975 13.76C171.335 13.4267 171.802 13.26 172.375 13.26C172.948 13.26 173.415 13.42 173.775 13.74C174.135 14.0467 174.315 14.4467 174.315 14.94C174.315 15.46 174.135 15.8933 173.775 16.24C173.428 16.5733 172.962 16.74 172.375 16.74ZM176.831 29V14.16H179.951V29H176.831ZM187.466 29.16C186.453 29.16 185.54 28.9333 184.726 28.48C183.913 28.0133 183.266 27.3667 182.786 26.54C182.32 25.7133 182.086 24.74 182.086 23.62C182.086 22.4867 182.32 21.5067 182.786 20.68C183.266 19.8533 183.913 19.2133 184.726 18.76C185.54 18.3067 186.453 18.08 187.466 18.08C188.373 18.08 189.166 18.28 189.846 18.68C190.526 19.08 191.053 19.6867 191.426 20.5C191.8 21.3133 191.986 22.3533 191.986 23.62C191.986 24.8733 191.806 25.9133 191.446 26.74C191.086 27.5533 190.566 28.16 189.886 28.56C189.22 28.96 188.413 29.16 187.466 29.16ZM188.006 26.6C188.513 26.6 188.973 26.48 189.386 26.24C189.8 26 190.126 25.66 190.366 25.22C190.62 24.7667 190.746 24.2333 190.746 23.62C190.746 22.9933 190.62 22.46 190.366 22.02C190.126 21.58 189.8 21.24 189.386 21C188.973 20.76 188.513 20.64 188.006 20.64C187.486 20.64 187.02 20.76 186.606 21C186.193 21.24 185.86 21.58 185.606 22.02C185.366 22.46 185.246 22.9933 185.246 23.62C185.246 24.2333 185.366 24.7667 185.606 25.22C185.86 25.66 186.193 26 186.606 26.24C187.02 26.48 187.486 26.6 188.006 26.6ZM190.826 29V26.8L190.886 23.6L190.686 20.42V14.16H193.806V29H190.826ZM202.034 29.16C200.807 29.16 199.727 28.92 198.794 28.44C197.874 27.96 197.161 27.3067 196.654 26.48C196.147 25.64 195.894 24.6867 195.894 23.62C195.894 22.54 196.141 21.5867 196.634 20.76C197.141 19.92 197.827 19.2667 198.694 18.8C199.561 18.32 200.541 18.08 201.634 18.08C202.687 18.08 203.634 18.3067 204.474 18.76C205.327 19.2 206.001 19.84 206.494 20.68C206.987 21.5067 207.234 22.5 207.234 23.66C207.234 23.78 207.227 23.92 207.214 24.08C207.201 24.2267 207.187 24.3667 207.174 24.5H198.434V22.68H205.534L204.334 23.22C204.334 22.66 204.221 22.1733 203.994 21.76C203.767 21.3467 203.454 21.0267 203.054 20.8C202.654 20.56 202.187 20.44 201.654 20.44C201.121 20.44 200.647 20.56 200.234 20.8C199.834 21.0267 199.521 21.3533 199.294 21.78C199.067 22.1933 198.954 22.6867 198.954 23.26V23.74C198.954 24.3267 199.081 24.8467 199.334 25.3C199.601 25.74 199.967 26.08 200.434 26.32C200.914 26.5467 201.474 26.66 202.114 26.66C202.687 26.66 203.187 26.5733 203.614 26.4C204.054 26.2267 204.454 25.9667 204.814 25.62L206.474 27.42C205.981 27.98 205.361 28.4133 204.614 28.72C203.867 29.0133 203.007 29.16 202.034 29.16ZM209.311 29V18.24H212.291V21.28L211.871 20.4C212.191 19.64 212.704 19.0667 213.411 18.68C214.118 18.28 214.978 18.08 215.991 18.08V20.96C215.858 20.9467 215.738 20.94 215.631 20.94C215.524 20.9267 215.411 20.92 215.291 20.92C214.438 20.92 213.744 21.1667 213.211 21.66C212.691 22.14 212.431 22.8933 212.431 23.92V29H209.311Z" fill="#B7E1FF"/>
<g clip-path="url(#clip0_41_97)">
<path d="M21.318 0.182064C21.5257 0.0634142 21.7608 0.00100708 22 0.00100708C22.2392 0.00100708 22.4743 0.0634142 22.682 0.182064L32.9945 6.07531C33.2049 6.19553 33.3799 6.36923 33.5016 6.57882C33.6233 6.78841 33.6874 7.02645 33.6875 7.26881V18.2551L43.307 23.7551C43.5166 23.8748 43.6911 24.0476 43.8127 24.2562C43.9344 24.4647 43.999 24.7016 44 24.9431V36.7296C43.9999 36.9719 43.9358 37.21 43.8141 37.4196C43.6924 37.6291 43.5174 37.8028 43.307 37.9231L32.9945 43.8163C32.7868 43.935 32.5517 43.9974 32.3125 43.9974C32.0733 43.9974 31.8382 43.935 31.6305 43.8163L22 38.3163L12.3695 43.8191C12.1618 43.9377 11.9267 44.0001 11.6875 44.0001C11.4483 44.0001 11.2132 43.9377 11.0055 43.8191L0.693 37.9258C0.482551 37.8056 0.307614 37.6319 0.185915 37.4223C0.064216 37.2127 7.81744e-05 36.9747 0 36.7323L0 24.9458C7.81744e-05 24.7034 0.064216 24.4654 0.185915 24.2558C0.307614 24.0462 0.482551 23.8725 0.693 23.7523L10.3125 18.2551V7.26881C10.3126 7.02645 10.3767 6.78841 10.4984 6.57882C10.6201 6.36923 10.7951 6.19553 11.0055 6.07531L21.318 0.182064ZM11.6875 20.6366L4.147 24.9458L11.6875 29.2551L19.228 24.9458L11.6875 20.6366ZM20.625 27.3163L13.0625 31.6366V40.2551L20.625 35.9348V27.3163ZM23.375 35.9348L30.9375 40.2551V31.6366L23.375 27.3163V35.9348ZM24.772 24.9458L32.3125 29.2551L39.853 24.9458L32.3125 20.6366L24.772 24.9458ZM30.9375 18.2551V9.63656L23.375 13.9596V22.5781L30.9375 18.2551V18.2551ZM20.625 22.5781V13.9596L13.0625 9.63656V18.2551L20.625 22.5781ZM14.4595 7.26881L22 11.5781L29.5405 7.26881L22 2.95956L14.4595 7.26881ZM41.25 27.3163L33.6875 31.6366V40.2551L41.25 35.9348V27.3163ZM10.3125 40.2551V31.6366L2.75 27.3163V35.9348L10.3125 40.2551Z" fill="url(#paint0_linear_41_97)"/>
</g>
<defs>
<linearGradient id="paint0_linear_41_97" x1="-2" y1="16" x2="42.6667" y2="16.6667" gradientUnits="userSpaceOnUse">
<stop stop-color="#5338D7"/>
<stop offset="1" stop-color="#4098E4"/>
</linearGradient>
<clipPath id="clip0_41_97">
<rect width="44" height="44" fill="white"/>
</clipPath>
</defs>
</svg>
