<svg width="150" height="150" viewBox="0 0 150 150" fill="none" xmlns="http://www.w3.org/2000/svg">
<rect width="150" height="150" fill="url(#paint0_linear_0_1)"/>
<path d="M59.6136 69.6136H62.2159C63.1477 69.6136 63.9735 69.8106 64.6932 70.2045C65.4167 70.5985 65.983 71.1534 66.392 71.8693C66.8049 72.5814 67.0114 73.4186 67.0114 74.3807C67.0114 75.3125 66.8049 76.125 66.392 76.8182C65.983 77.5114 65.4167 78.0511 64.6932 78.4375C63.9735 78.8201 63.1477 79.0114 62.2159 79.0114H59.6136C58.678 79.0114 57.8485 78.822 57.125 78.4432C56.4015 78.0606 55.8333 77.5227 55.4205 76.8295C55.0114 76.1364 54.8068 75.3182 54.8068 74.375C54.8068 73.4129 55.0133 72.5758 55.4261 71.8636C55.8428 71.1477 56.4129 70.5947 57.1364 70.2045C57.8598 69.8106 58.6856 69.6136 59.6136 69.6136ZM59.6136 71.6705C59.1136 71.6705 58.6723 71.7708 58.2898 71.9716C57.911 72.1686 57.6155 72.4678 57.4034 72.8693C57.1913 73.2708 57.0852 73.7727 57.0852 74.375C57.0852 74.9508 57.1932 75.4299 57.4091 75.8125C57.6288 76.1951 57.928 76.4811 58.3068 76.6705C58.6856 76.8598 59.1212 76.9545 59.6136 76.9545H62.233C62.7292 76.9545 63.1629 76.858 63.5341 76.6648C63.9091 76.4716 64.1989 76.1837 64.4034 75.8011C64.6117 75.4186 64.7159 74.9451 64.7159 74.3807C64.7159 73.7784 64.6117 73.2765 64.4034 72.875C64.1989 72.4735 63.9091 72.1723 63.5341 71.9716C63.1629 71.7708 62.7292 71.6705 62.233 71.6705H59.6136ZM62.0795 68.1591V80.4773H59.7443V68.1591H62.0795ZM72.7216 80.1705C71.839 80.1705 71.0758 79.983 70.4318 79.608C69.7917 79.2292 69.2973 78.7027 68.9489 78.0284C68.6004 77.3504 68.4261 76.5644 68.4261 75.6705C68.4261 74.7689 68.6004 73.9811 68.9489 73.3068C69.2973 72.6288 69.7917 72.1023 70.4318 71.7273C71.0758 71.3485 71.839 71.1591 72.7216 71.1591C73.6042 71.1591 74.3655 71.3485 75.0057 71.7273C75.6496 72.1023 76.1458 72.6288 76.4943 73.3068C76.8428 73.9811 77.017 74.7689 77.017 75.6705C77.017 76.5644 76.8428 77.3504 76.4943 78.0284C76.1458 78.7027 75.6496 79.2292 75.0057 79.608C74.3655 79.983 73.6042 80.1705 72.7216 80.1705ZM72.733 78.2955C73.1345 78.2955 73.4697 78.1818 73.7386 77.9545C74.0076 77.7235 74.2102 77.4091 74.3466 77.0114C74.4867 76.6136 74.5568 76.161 74.5568 75.6534C74.5568 75.1458 74.4867 74.6932 74.3466 74.2955C74.2102 73.8977 74.0076 73.5833 73.7386 73.3523C73.4697 73.1212 73.1345 73.0057 72.733 73.0057C72.3277 73.0057 71.9867 73.1212 71.7102 73.3523C71.4375 73.5833 71.2311 73.8977 71.0909 74.2955C70.9545 74.6932 70.8864 75.1458 70.8864 75.6534C70.8864 76.161 70.9545 76.6136 71.0909 77.0114C71.2311 77.4091 71.4375 77.7235 71.7102 77.9545C71.9867 78.1818 72.3277 78.2955 72.733 78.2955ZM77.7457 73.1761V71.2727H85.6548V73.1761H82.8423V80H80.5355V73.1761H77.7457ZM90.7528 80.1705C89.8703 80.1705 89.107 79.983 88.4631 79.608C87.8229 79.2292 87.3286 78.7027 86.9801 78.0284C86.6316 77.3504 86.4574 76.5644 86.4574 75.6705C86.4574 74.7689 86.6316 73.9811 86.9801 73.3068C87.3286 72.6288 87.8229 72.1023 88.4631 71.7273C89.107 71.3485 89.8703 71.1591 90.7528 71.1591C91.6354 71.1591 92.3968 71.3485 93.0369 71.7273C93.6809 72.1023 94.1771 72.6288 94.5256 73.3068C94.8741 73.9811 95.0483 74.7689 95.0483 75.6705C95.0483 76.5644 94.8741 77.3504 94.5256 78.0284C94.1771 78.7027 93.6809 79.2292 93.0369 79.608C92.3968 79.983 91.6354 80.1705 90.7528 80.1705ZM90.7642 78.2955C91.1657 78.2955 91.5009 78.1818 91.7699 77.9545C92.0388 77.7235 92.2415 77.4091 92.3778 77.0114C92.518 76.6136 92.5881 76.161 92.5881 75.6534C92.5881 75.1458 92.518 74.6932 92.3778 74.2955C92.2415 73.8977 92.0388 73.5833 91.7699 73.3523C91.5009 73.1212 91.1657 73.0057 90.7642 73.0057C90.3589 73.0057 90.018 73.1212 89.7415 73.3523C89.4688 73.5833 89.2623 73.8977 89.1222 74.2955C88.9858 74.6932 88.9176 75.1458 88.9176 75.6534C88.9176 76.161 88.9858 76.6136 89.1222 77.0114C89.2623 77.4091 89.4688 77.7235 89.7415 77.9545C90.018 78.1818 90.3589 78.2955 90.7642 78.2955Z" fill="white"/>
<defs>
<linearGradient id="paint0_linear_0_1" x1="75" y1="150" x2="168.866" y2="86.0916" gradientUnits="userSpaceOnUse">
<stop stop-color="#6115D8"/>
<stop offset="1" stop-color="#25F1F2"/>
</linearGradient>
</defs>
</svg>
